# xmcd
#
# Track frame offsets:
#	150
#	12300
#	32109
#	46189
#	58901
#	72826
#	86949
#	101994
#
# Disc length: 1603 seconds
#
# Revision: 0
# Processed by: cddbd v1.5.1PL0 Copyright (c) Steve Scherf et al.
# Submitted via: dBpowerAMP V4.0
#
DISCID=6e064108
DTITLE=Martin And His Rhythm Kings - Plays The Blues
DYEAR=1900
DGENRE=
TTITLE0=Track01 The Loop
TTITLE1=Track02 Texas Flood
TTITLE2=Track03 The Stumble
TTITLE3=Track04 T-Bone Shuffle
TTITLE4=Track05 Don´t Loose Your Cool
TTITLE5=Track06 San-Za-Shun
TTITLE6=Track07 C53 Blues
TTITLE7=Track08 Walking Blues
EXTD=
EXTT0=
EXTT1=
EXTT2=
EXTT3=
EXTT4=
EXTT5=
EXTT6=
EXTT7=
PLAYORDER=
